<?xml version="1.0" encoding="UTF-8" standalone="no"?>
<!-- Created with Inkscape (http://www.inkscape.org/) -->

<svg
   width="128"
   height="128"
   viewBox="0 0 33.866666 33.866668"
   version="1.1"
   id="svg6757"
   inkscape:version="1.1.2 (0a00cf5339, 2022-02-04)"
   sodipodi:docname="logo-personal-v1.svg"
   xmlns:inkscape="http://www.inkscape.org/namespaces/inkscape"
   xmlns:sodipodi="http://sodipodi.sourceforge.net/DTD/sodipodi-0.dtd"
   xmlns="http://www.w3.org/2000/svg"
   xmlns:svg="http://www.w3.org/2000/svg">
  <sodipodi:namedview
     id="namedview6759"
     pagecolor="#505050"
     bordercolor="#eeeeee"
     borderopacity="1"
     inkscape:pageshadow="0"
     inkscape:pageopacity="0"
     inkscape:pagecheckerboard="0"
     inkscape:document-units="mm"
     showgrid="false"
     inkscape:zoom="2.0810325"
     inkscape:cx="47.572538"
     inkscape:cy="120.13267"
     inkscape:window-width="1365"
     inkscape:window-height="741"
     inkscape:window-x="0"
     inkscape:window-y="1"
     inkscape:window-maximized="1"
     inkscape:current-layer="layer1"
     units="px"
     width="128px"
     fit-margin-top="0"
     fit-margin-left="0"
     fit-margin-right="0"
     fit-margin-bottom="0"
     lock-margins="false" />
  <defs
     id="defs6754" />
  <g
     inkscape:label="Capa 1"
     inkscape:groupmode="layer"
     id="layer1"
     transform="translate(-123.06006,-49.827193)">
    <rect
       style="fill:none;stroke:#000000;stroke-width:0.811648;stroke-linecap:round;stroke-linejoin:round;stroke-miterlimit:4;stroke-dasharray:none;paint-order:markers fill stroke;stop-color:#000000"
       id="rect5994"
       width="33.055019"
       height="33.055019"
       x="123.46589"
       y="50.233017"
       ry="3.2866259" />
    <g
       aria-label="aG"
       id="g5998"
       style="font-size:29.4179px;line-height:1.25;stroke-width:1.57596"
       transform="matrix(0,-0.81164914,0.81164914,0,105.3938,122.21653)">
      <path
         d="m 69.176766,51.378857 v -6.589251 h -4.740189 v -2.727718 h 7.613031 v 10.532941 q -1.680612,1.363859 -3.705966,2.070437 -2.025353,0.690146 -4.323627,0.690146 -5.027473,0 -7.871586,-3.352137 -2.829749,-3.36857 -2.829749,-9.366266 0,-6.014128 2.829749,-9.366266 2.844113,-3.368569 7.871586,-3.368569 2.097175,0 3.978886,0.591554 1.896076,0.591553 3.490503,1.741797 v 3.532889 q -1.608791,-1.561044 -3.418682,-2.349782 -1.80989,-0.788738 -3.806515,-0.788738 -3.935793,0 -5.918054,2.514103 -1.967897,2.514103 -1.967897,7.493012 0,4.962477 1.967897,7.47658 1.982261,2.514103 5.918054,2.514103 1.53697,0 2.743564,-0.295777 1.206593,-0.312209 2.168995,-0.953058 z"
         id="path5996"
         style="stroke-width:1.68558" />
    </g>
    <circle
       style="fill:#ffcc00;stroke:none;stroke-width:4.21164;stroke-linecap:round;stroke-linejoin:round;paint-order:markers fill stroke;stop-color:#000000"
       id="circle6000"
       cx="139.99342"
       cy="57.515274"
       r="2.9346855" />
  </g>
</svg>
